<?xml version="1.0" encoding="utf-8"?>
<!-- Generator: Adobe Illustrator 16.0.0, SVG Export Plug-In . SVG Version: 6.00 Build 0)  -->
<!DOCTYPE svg PUBLIC "-//W3C//DTD SVG 1.1//EN" "http://www.w3.org/Graphics/SVG/1.1/DTD/svg11.dtd">
<svg version="1.1" id="Layer_1" xmlns="http://www.w3.org/2000/svg" xmlns:xlink="http://www.w3.org/1999/xlink" x="0px" y="0px"
	 width="250.507px" height="59.293px" viewBox="0 0 250.507 59.293" enable-background="new 0 0 250.507 59.293"
	 xml:space="preserve">
<g>
	<path fill="#FFFFFF" d="M70.437,32.738c0,1.632,0.663,2.106,2.567,2.106h3.06c1.819,0,2.482-0.491,2.482-2.125v-7.31h2.839v7.599
		c0,3.111-1.173,4.199-4.811,4.199h-4.182c-3.468,0-4.777-1.188-4.777-4.199V25.41h2.822V32.738z"/>
	<path fill="#FFFFFF" d="M83.646,32.279v-1.496c0-4.607,1.224-5.373,5.61-5.373h2.516c4.624,0,5.78,0.697,5.78,4.012h-2.924
		c-0.017-0.918-0.306-1.394-2.992-1.394H89.46c-2.55,0-2.958,0.221-2.958,2.72v1.292c0,2.295,0.408,2.618,2.856,2.618h2.312
		c2.499,0,2.992-0.223,2.975-1.549h2.924c0.017,3.146-0.782,4.115-5.831,4.115h-2.584C84.818,37.227,83.646,36.189,83.646,32.279z"
		/>
	<path fill="#FFFFFF" d="M109.099,25.411c2.958,0,4.369,1.071,4.369,3.332h-3.043c-0.017-0.714-0.255-0.986-1.445-0.986h-4.743
		c-0.799,0-1.377,0.204-1.377,1.105c0,0.935,0.561,0.969,1.377,1.003l5.219,0.204c2.669,0.102,4.029,0.442,4.029,3.553
		c0,2.517-1.02,3.587-3.978,3.587h-5.848c-3.009,0-3.978-1.07-3.978-3.35h2.89c0,0.578,0.578,0.985,1.377,0.985h4.726
		c1.241,0,1.853-0.237,1.853-1.188c0-0.85-0.357-1.241-1.972-1.311l-4.522-0.187c-3.196-0.138-4.369-0.408-4.369-3.332
		c0-2.516,1.224-3.417,4.25-3.417L109.099,25.411L109.099,25.411z"/>
	<path fill="#FFFFFF" d="M128.156,25.411v2.346h-9.231v2.176h8.942v2.363h-8.942v4.913h-2.839V25.411H128.156z"/>
	<path fill="#FFFFFF" d="M141.722,25.411v9.418h7.259v2.38h-10.099V25.411H141.722z"/>
	<path fill="#FFFFFF" d="M151.494,25.411h2.821v11.798h-2.821V25.411z"/>
	<path fill="#FFFFFF" d="M169.762,28.352c0,2.023-0.272,2.261-0.952,2.583c0.918,0.188,1.562,0.73,1.562,2.805
		c0,2.517-0.814,3.469-3.264,3.469h-9.962V25.411h9.011C168.945,25.411,169.762,26.278,169.762,28.352z M165.732,29.848
		c0.748,0,1.207-0.238,1.207-1.037c0-0.765-0.441-1.054-1.225-1.054h-5.729v2.091H165.732z M166.158,34.846
		c0.883,0,1.377-0.356,1.377-1.394c0-0.97-0.527-1.241-1.479-1.241h-6.069v2.635H166.158z"/>
	<path fill="#FFFFFF" d="M185.775,37.209h-2.839v-1.836c0-1.156-0.612-1.684-1.921-1.684h-5.576v3.52H172.6V25.411h8.755
		c3.061,0,4.301,1.037,4.301,3.774v0.816c0,1.343-0.188,2.04-0.935,2.517c0.646,0.237,1.054,0.851,1.054,2.243V37.209
		L185.775,37.209z M182.833,29.457c0-0.918-0.355-1.224-1.41-1.224h-6.034v2.652h6.103c0.986,0,1.344-0.306,1.344-1.19v-0.238
		H182.833z"/>
	<path fill="#FFFFFF" d="M197.828,25.411l6.086,11.798H200.6l-1.429-2.839h-7.157l-1.444,2.839h-3.298l6.086-11.798H197.828z
		 M195.567,27.621l-2.329,4.386h4.709l-2.244-4.386H195.567z"/>
	<path fill="#FFFFFF" d="M218.449,37.209h-2.839v-1.836c0-1.156-0.612-1.684-1.922-1.684h-5.575v3.52h-2.84V25.411h8.756
		c3.061,0,4.301,1.037,4.301,3.774v0.816c0,1.343-0.188,2.04-0.936,2.517c0.646,0.237,1.055,0.851,1.055,2.243V37.209
		L218.449,37.209z M215.507,29.457c0-0.918-0.355-1.224-1.41-1.224h-6.035v2.652h6.104c0.986,0,1.344-0.306,1.344-1.19v-0.238
		H215.507z"/>
	<path fill="#FFFFFF" d="M226.298,30.732l3.843-5.322h3.229l-5.66,7.82v3.979h-2.84V33.23l-5.797-7.82h3.383L226.298,30.732z"/>
</g>
<g>
	<path fill="#FFFFFF" d="M30.106,39.75V7.916c1.5-2.813,2.83-3.563,4.313-4.553c0,3.713,0,30.307,0,31.366
		C32.274,36.24,30.429,38.604,30.106,39.75z M32.685,41.479c-0.312-0.268-0.775-0.455-1.135-0.66
		c0.515-1.014,1.813-3.209,3.962-4.522l0.558-0.332V8.51c1.1-1.594,3.501-2.211,4.717-2.303c0,2.49,0,29.256,0,31.004
		C36.782,37.832,33.869,40.256,32.685,41.479z M35.484,46.439c-0.087-2.16-1.052-3.195-1.181-3.429
		c0.89-0.995,3.067-3.038,7.234-3.364l1.033-0.08v-28.42c0.94-0.195,1.97-0.453,4.119,0.73c0,1.703,0,13.012,0,15.281h2.217V10.574
		c0,0-3.467-2.639-6.336-1.672V3.873l-1.235,0.133c-0.153,0.016-2.968,0.344-5.283,2.156V0.221l-1.638,0.875
		c-0.18,0.096-3.714,2.033-5.842,5.975c-0.008-0.014-0.017-0.027-0.025-0.045v35.246c2.197,0.072,4.729,1.91,4.919,4.168H35.484
		L35.484,46.439z"/>
</g>
<g>
	<rect y="43.697" fill="#FFFFFF" width="2.811" height="2.807"/>
	<rect x="26.392" y="50.021" fill="#FFFFFF" width="2.81" height="2.805"/>
	<rect x="6.619" y="50.021" fill="#FFFFFF" width="2.812" height="2.805"/>
	<rect y="50.021" fill="#FFFFFF" width="2.811" height="2.805"/>
	<rect x="19.777" y="50.021" fill="#FFFFFF" width="2.809" height="2.805"/>
	<rect x="13.16" y="50.021" fill="#FFFFFF" width="2.81" height="2.805"/>
	<rect x="46.402" y="50.021" fill="#FFFFFF" width="2.811" height="2.805"/>
	<rect x="33.163" y="50.021" fill="#FFFFFF" width="2.811" height="2.805"/>
	<rect x="39.782" y="50.021" fill="#FFFFFF" width="2.812" height="2.805"/>
	<rect x="39.782" y="43.768" fill="#FFFFFF" width="2.812" height="2.81"/>
	<rect y="37.254" fill="#FFFFFF" width="2.811" height="2.811"/>
	<rect x="52.869" y="43.697" fill="#FFFFFF" width="2.812" height="2.807"/>
	<rect x="52.869" y="50.021" fill="#FFFFFF" width="2.812" height="2.805"/>
	<rect x="26.392" y="56.486" fill="#FFFFFF" width="2.81" height="2.807"/>
	<rect x="6.619" y="56.486" fill="#FFFFFF" width="2.812" height="2.807"/>
	<rect y="56.486" fill="#FFFFFF" width="2.811" height="2.807"/>
	<rect x="19.777" y="56.486" fill="#FFFFFF" width="2.809" height="2.807"/>
	<rect x="13.16" y="56.486" fill="#FFFFFF" width="2.81" height="2.807"/>
	<rect x="46.402" y="56.486" fill="#FFFFFF" width="2.811" height="2.807"/>
	<rect x="33.163" y="56.486" fill="#FFFFFF" width="2.811" height="2.807"/>
	<rect x="39.782" y="56.486" fill="#FFFFFF" width="2.812" height="2.807"/>
	<rect x="52.869" y="30.812" fill="#FFFFFF" width="2.812" height="2.812"/>
	<rect x="52.869" y="37.254" fill="#FFFFFF" width="2.812" height="2.811"/>
	<rect x="52.869" y="24.063" fill="#FFFFFF" width="2.812" height="2.811"/>
	<rect x="46.307" y="30.812" fill="#FFFFFF" width="2.812" height="2.812"/>
	<rect x="46.331" y="43.729" fill="#FFFFFF" width="2.811" height="2.81"/>
	<rect x="46.361" y="37.326" fill="#FFFFFF" width="2.811" height="2.811"/>
</g>
<path fill="#FFFFFF" d="M21.143,46.203c-3.078,0-12.599,0-14.534,0v-35.34c2.544-1.297,4.289-0.982,5.155-0.637v30.973l1.224,0.09
	c4.597,0.334,7.484,2.572,8.704,3.752C21.479,45.371,21.295,45.844,21.143,46.203z M23.439,43.186
	c-1.477-1.377-5.022-3.961-9.563-4.619c0-1.94,0-31.618,0-34.382c3.043,0.441,5.478,3.428,5.478,3.428v29.51l0.766,0.428
	c2.435,1.398,3.946,3.687,4.605,4.863C24.268,42.631,23.838,42.891,23.439,43.186z M26.821,41.188
	c-0.571-1.153-3.301-4.061-5.841-5.735c0-1.175,0-31.334,0-35.451c1.643,1.26,5.018,5.482,5.841,8.414V41.188z"/>
</svg>
