<?xml version="1.0" encoding="utf-8"?>
<!-- Generator: Adobe Illustrator 16.0.0, SVG Export Plug-In . SVG Version: 6.00 Build 0)  -->
<!DOCTYPE svg PUBLIC "-//W3C//DTD SVG 1.1//EN" "http://www.w3.org/Graphics/SVG/1.1/DTD/svg11.dtd">
<svg version="1.1" id="Layer_1" xmlns="http://www.w3.org/2000/svg" xmlns:xlink="http://www.w3.org/1999/xlink" x="0px" y="0px"
	 width="450px" height="450px" viewBox="0 0 450 450" enable-background="new 0 0 450 450" xml:space="preserve">
<g>
	<polygon fill="#FFFFFF" points="218.275,197.568 222.059,197.568 222.059,234.079 244.323,234.079 244.323,237.309 
		218.275,237.309 	"/>
	<path fill="#FFFFFF" d="M247.559,197.568h3.506v5.621h-3.506V197.568z M247.559,208.588h3.506v28.719h-3.506V208.588z"/>
	<g>
		<g>
			<defs>
				<rect id="SVGID_1_" x="70.913" y="177.44" width="307.36" height="70.498"/>
			</defs>
			<clipPath id="SVGID_2_">
				<use xlink:href="#SVGID_1_"  overflow="visible"/>
			</clipPath>
			<path clip-path="url(#SVGID_2_)" fill="#FFFFFF" d="M257.801,197.568h3.506v16.475h0.112c1.503-4.119,5.679-6.288,9.963-6.288
				c8.737,0,12.912,7.066,12.912,15.193c0,8.125-4.175,15.194-12.912,15.194c-4.62,0-8.627-2.396-10.241-6.291h-0.11v5.455h-3.229
				V197.568L257.801,197.568z M271.382,210.703c-7.458,0-10.075,6.288-10.075,12.245c0,5.954,2.617,12.243,10.075,12.243
				c6.679,0,9.407-6.289,9.407-12.243C280.789,216.991,278.061,210.703,271.382,210.703"/>
		</g>
		<g>
			<defs>
				<rect id="SVGID_3_" x="70.913" y="177.44" width="307.36" height="70.498"/>
			</defs>
			<clipPath id="SVGID_4_">
				<use xlink:href="#SVGID_3_"  overflow="visible"/>
			</clipPath>
			<path clip-path="url(#SVGID_4_)" fill="#FFFFFF" d="M289.758,208.588h3.229v6.734h0.111c1.781-4.618,5.678-7.348,10.853-7.124
				v3.508c-6.345-0.336-10.687,4.34-10.687,10.297v15.304h-3.506V208.588L289.758,208.588z"/>
		</g>
		<g>
			<defs>
				<rect id="SVGID_5_" x="70.913" y="177.44" width="307.36" height="70.498"/>
			</defs>
			<clipPath id="SVGID_6_">
				<use xlink:href="#SVGID_5_"  overflow="visible"/>
			</clipPath>
			<path clip-path="url(#SVGID_6_)" fill="#FFFFFF" d="M306.961,217.382c0.334-6.734,5.066-9.628,11.633-9.628
				c5.065,0,10.575,1.557,10.575,9.238v15.251c0,1.336,0.669,2.114,2.06,2.114c0.39,0,0.834-0.111,1.113-0.224v2.949
				c-0.777,0.167-1.336,0.224-2.283,0.224c-3.562,0-4.117-2.002-4.117-5.009h-0.112c-2.447,3.729-4.951,5.845-10.463,5.845
				c-5.287,0-9.628-2.617-9.628-8.406c0-8.069,7.85-8.347,15.416-9.236c2.896-0.336,4.509-0.724,4.509-3.898
				c0-4.729-3.396-5.897-7.515-5.897c-4.342,0-7.567,2.003-7.682,6.678L306.961,217.382L306.961,217.382z M325.662,221.612h-0.111
				c-0.445,0.834-2.005,1.113-2.947,1.28c-5.957,1.056-13.357,1.002-13.357,6.624c0,3.506,3.113,5.676,6.398,5.676
				c5.344,0,10.072-3.396,10.019-9.018L325.662,221.612L325.662,221.612z"/>
		</g>
		<g>
			<defs>
				<rect id="SVGID_7_" x="70.913" y="177.44" width="307.36" height="70.498"/>
			</defs>
			<clipPath id="SVGID_8_">
				<use xlink:href="#SVGID_7_"  overflow="visible"/>
			</clipPath>
			<path clip-path="url(#SVGID_8_)" fill="#FFFFFF" d="M336.189,208.588h3.229v6.734h0.11c1.781-4.618,5.677-7.348,10.853-7.124
				v3.508c-6.344-0.336-10.687,4.34-10.687,10.297v15.304h-3.508v-28.719H336.189z"/>
		</g>
		<g>
			<defs>
				<rect id="SVGID_9_" x="70.913" y="177.44" width="307.36" height="70.498"/>
			</defs>
			<clipPath id="SVGID_10_">
				<use xlink:href="#SVGID_9_"  overflow="visible"/>
			</clipPath>
			<path clip-path="url(#SVGID_10_)" fill="#FFFFFF" d="M352.725,208.588h3.732l9.459,24.49l8.852-24.49h3.506l-12.467,33.117
				c-2.006,4.842-3.173,6.23-7.57,6.23c-1.391-0.054-2.114-0.054-2.672-0.275v-2.949c0.836,0.167,1.615,0.277,2.396,0.277
				c3.117,0,3.84-1.836,5.011-4.51l1.221-3.281L352.725,208.588z"/>
		</g>
		<g>
			<defs>
				<rect id="SVGID_11_" x="70.913" y="177.44" width="307.36" height="70.498"/>
			</defs>
			<clipPath id="SVGID_12_">
				<use xlink:href="#SVGID_11_"  overflow="visible"/>
			</clipPath>
			<path clip-path="url(#SVGID_12_)" fill="#FFFFFF" d="M196.842,203.82v-7.586h-28.857v27.951
				c-0.153-3.273-1.349-5.817-3.614-7.603c-1.563-1.235-3.916-2.221-7.054-2.96l-7.156-1.689c-2.762-0.645-4.569-1.205-5.416-1.686
				c-0.784-0.426-1.332-0.979-1.649-1.66l-0.005,0.003c-0.002-0.008-0.002-0.013-0.004-0.017c-0.214-0.466-0.336-1.012-0.336-1.595
				c0-1.248,0.428-2.312,1.318-3.148v-0.002c0.02-0.018,0.038-0.036,0.059-0.052v-0.002c0-0.002,0-0.002,0.002,0
				c0.194-0.178,0.408-0.345,0.642-0.5c1.343-0.886,3.139-1.327,5.389-1.327c2.024,0,3.716,0.34,5.079,1.023
				c2.041,1.034,3.136,2.774,3.289,5.229h8.188c-0.149-4.333-1.76-7.64-4.831-9.92c-3.071-2.275-6.784-3.416-11.132-3.416
				c-5.209,0-9.159,1.208-11.849,3.625c-1.651,1.485-2.793,3.206-3.431,5.158h-0.005c-0.135,0.421-0.25,0.858-0.34,1.3
				c-0.998,4.704-4.026,7.896-9.091,7.896c-8.104,0-11.15-6.896-11.15-13.736c0-7.185,3.046-14.08,11.15-14.08
				c4.484,0,8.39,3.104,8.965,7.181h8.737c-1.09-9.48-8.678-14.769-17.702-14.769c-12.114,0-19.464,8.625-20.119,19.994v-19.017
				h-9.026v25.519c0,6.094-2.071,8.908-8.508,8.908c-7.299,0-8.451-4.426-8.451-8.908v-25.519h-9.021v25.519
				c0,11.149,6.437,16.497,17.472,16.497c10.982,0,17.534-5.403,17.534-16.497v-3.199c0.655,11.069,8.005,19.696,20.119,19.696
				c4.979,0,9.224-1.607,12.356-4.468c0.193,0.157,0.392,0.311,0.601,0.452c1.625,1.126,4.606,2.167,8.945,3.127l4.414,0.97
				c2.584,0.552,4.472,1.187,5.664,1.908c1.187,0.736,1.782,1.779,1.782,3.125c0,2.307-1.212,3.882-3.643,4.73
				c-1.28,0.443-2.947,0.664-5.002,0.664c-3.425,0-5.847-0.84-7.257-2.519c-0.773-0.922-1.293-2.313-1.555-4.176h-8.133
				c0,4.243,1.537,7.575,4.612,10.001c3.078,2.426,7.3,3.638,12.669,3.638c5.258,0,9.325-1.229,12.207-3.692
				c2.647-2.267,4.075-5.067,4.287-8.399v11.479h9.026v-16.957h17.186v-7.012h-17.186v-9.485h19.831V203.82z"/>
		</g>
	</g>
</g>
</svg>
