<?xml version="1.0" encoding="utf-8"?>
<!-- Generator: Adobe Illustrator 16.0.4, SVG Export Plug-In . SVG Version: 6.00 Build 0)  -->
<!DOCTYPE svg PUBLIC "-//W3C//DTD SVG 1.1//EN" "http://www.w3.org/Graphics/SVG/1.1/DTD/svg11.dtd">
<svg version="1.1" id="Layer_1" xmlns="http://www.w3.org/2000/svg" xmlns:xlink="http://www.w3.org/1999/xlink" x="0px" y="0px"
	 width="265px" height="64.564px" viewBox="53 116.5 265 64.564" enable-background="new 53 116.5 265 64.564" xml:space="preserve"
	>
<g>
	<g>
		<path fill="#122147" d="M180.861,137.094h3.078v29.695h18.109v2.627h-21.187V137.094z"/>
		<path fill="#122147" d="M204.679,137.094h2.851v4.572h-2.851V137.094z M204.679,146.057h2.851v23.36h-2.851V146.057z"/>
		<path fill="#122147" d="M213.009,137.094h2.852v13.399h0.092c1.224-3.35,4.617-5.114,8.104-5.114
			c7.107,0,10.505,5.749,10.505,12.357s-3.397,12.358-10.505,12.358c-3.758,0-7.015-1.945-8.33-5.116h-0.088v4.438h-2.629V137.094z
			 M224.056,147.777c-6.066,0-8.195,5.113-8.195,9.959c0,4.845,2.129,9.959,8.195,9.959c5.431,0,7.652-5.114,7.652-9.959
			C231.709,152.891,229.488,147.777,224.056,147.777z"/>
		<path fill="#122147" d="M239.003,146.057h2.627v5.48h0.088c1.451-3.759,4.619-5.979,8.829-5.797v2.854
			c-5.161-0.273-8.694,3.528-8.694,8.374v12.45h-2.85V146.057z"/>
		<path fill="#122147" d="M252.996,153.21c0.271-5.479,4.12-7.831,9.464-7.831c4.119,0,8.602,1.266,8.602,7.512v12.407
			c0,1.086,0.543,1.719,1.675,1.719c0.315,0,0.68-0.092,0.906-0.18v2.397c-0.634,0.136-1.089,0.183-1.857,0.183
			c-2.896,0-3.351-1.63-3.351-4.075h-0.091c-1.99,3.034-4.026,4.753-8.511,4.753c-4.299,0-7.828-2.129-7.828-6.835
			c0-6.564,6.382-6.792,12.537-7.514c2.354-0.276,3.667-0.591,3.667-3.171c0-3.847-2.761-4.8-6.109-4.8
			c-3.533,0-6.157,1.629-6.249,5.434L252.996,153.21L252.996,153.21z M268.207,156.651h-0.09c-0.363,0.678-1.63,0.905-2.399,1.04
			c-4.845,0.857-10.863,0.813-10.863,5.389c0,2.851,2.531,4.615,5.205,4.615c4.347,0,8.194-2.762,8.147-7.336V156.651z"/>
		<path fill="#122147" d="M276.771,146.057h2.624v5.48h0.092c1.448-3.759,4.618-5.979,8.825-5.797v2.854
			c-5.16-0.273-8.689,3.528-8.689,8.374v12.45h-2.852V146.057z"/>
		<path fill="#122147" d="M290.22,146.057h3.035l7.696,19.92l7.199-19.92H311l-10.141,26.939c-1.631,3.935-2.58,5.068-6.156,5.068
			c-1.132-0.044-1.719-0.044-2.175-0.228v-2.396c0.683,0.136,1.316,0.224,1.95,0.224c2.532,0,3.123-1.492,4.072-3.667l0.996-2.671
			L290.22,146.057z"/>
	</g>
	<path fill="#122147" d="M163.428,142.179v-6.17h-23.472v22.734c-0.124-2.665-1.096-4.731-2.938-6.184
		c-1.272-1.009-3.185-1.808-5.738-2.409l-5.82-1.375c-2.247-0.523-3.717-0.979-4.405-1.37c-0.638-0.346-1.083-0.797-1.342-1.351
		l-0.003,0.002c-0.001-0.006-0.001-0.01-0.004-0.014c-0.174-0.379-0.273-0.822-0.273-1.297c0-1.016,0.348-1.881,1.072-2.561
		c0-0.002,0-0.002,0-0.002c0.016-0.014,0.031-0.029,0.048-0.041v-0.003c0-0.002,0-0.002,0.001,0c0.158-0.145,0.332-0.28,0.522-0.407
		c1.093-0.72,2.553-1.079,4.384-1.079c1.646,0,3.021,0.277,4.13,0.832c1.66,0.842,2.551,2.258,2.675,4.255h6.66
		c-0.121-3.524-1.432-6.215-3.929-8.069c-2.498-1.852-5.518-2.777-9.054-2.777c-4.237,0-7.45,0.981-9.638,2.947
		c-1.343,1.209-2.272,2.608-2.791,4.195h-0.003c-0.11,0.343-0.204,0.698-0.278,1.058c-0.812,3.826-3.275,6.424-7.394,6.424
		c-6.592,0-9.069-5.61-9.069-11.175c0-5.843,2.478-11.451,9.069-11.451c3.647,0,6.825,2.523,7.292,5.841h7.106
		c-0.887-7.711-7.061-12.013-14.4-12.013c-9.854,0-15.832,7.015-16.365,16.262v-15.467h-7.34v20.756
		c0,4.956-1.684,7.246-6.919,7.246c-5.938,0-6.874-3.6-6.874-7.246v-20.756H61v20.756c0,9.068,5.235,13.419,14.211,13.419
		c8.932,0,14.261-4.395,14.261-13.419v-2.603c0.533,9.004,6.51,16.021,16.364,16.021c4.05,0,7.502-1.309,10.049-3.637
		c0.158,0.129,0.319,0.253,0.489,0.37c1.321,0.917,3.746,1.764,7.275,2.544l3.59,0.788c2.102,0.446,3.638,0.963,4.607,1.55
		c0.965,0.601,1.45,1.447,1.45,2.544c0,1.876-0.986,3.155-2.964,3.849c-1.041,0.358-2.397,0.538-4.068,0.538
		c-2.785,0-4.756-0.682-5.903-2.049c-0.629-0.747-1.052-1.88-1.265-3.394h-6.616c0,3.448,1.25,6.161,3.751,8.133
		c2.503,1.973,5.937,2.958,10.305,2.958c4.278,0,7.586-1.001,9.929-3c2.154-1.845,3.315-4.124,3.487-6.832v9.335h7.342v-13.791
		h13.979v-5.703h-13.979v-7.714H163.428L163.428,142.179z"/>
</g>
</svg>
