<?xml version="1.0" encoding="utf-8"?>
<!-- Generator: Adobe Illustrator 16.0.0, SVG Export Plug-In . SVG Version: 6.00 Build 0)  -->
<!DOCTYPE svg PUBLIC "-//W3C//DTD SVG 1.1//EN" "http://www.w3.org/Graphics/SVG/1.1/DTD/svg11.dtd">
<svg version="1.1" id="Layer_1" xmlns="http://www.w3.org/2000/svg" xmlns:xlink="http://www.w3.org/1999/xlink" x="0px" y="0px"
	 width="450px" height="450px" viewBox="0 0 450 450" enable-background="new 0 0 450 450" xml:space="preserve">
<g>
	<g>
		<path fill="#122147" d="M217.677,191.866h4.385v42.317h25.806v3.745h-30.191V191.866z"/>
		<path fill="#122147" d="M251.618,191.866h4.063v6.516h-4.063V191.866z M251.618,204.639h4.063v33.29h-4.063V204.639z"/>
		<path fill="#122147" d="M263.489,191.866h4.064v19.095h0.13c1.745-4.773,6.581-7.288,11.548-7.288
			c10.128,0,14.97,8.193,14.97,17.61s-4.842,17.612-14.97,17.612c-5.354,0-9.996-2.773-11.871-7.292h-0.126v6.325h-3.745V191.866z
			 M279.231,207.091c-8.644,0-11.678,7.287-11.678,14.192c0,6.904,3.034,14.191,11.678,14.191c7.741,0,10.906-7.287,10.906-14.191
			C290.138,214.378,286.973,207.091,279.231,207.091z"/>
		<path fill="#122147" d="M300.531,204.639h3.745v7.808h0.125c2.068-5.355,6.581-8.518,12.582-8.26v4.066
			c-7.354-0.389-12.389,5.028-12.389,11.934v17.742h-4.063V204.639z"/>
		<path fill="#122147" d="M320.473,214.833c0.387-7.808,5.871-11.16,13.486-11.16c5.87,0,12.258,1.804,12.258,10.705v17.681
			c0,1.546,0.773,2.449,2.387,2.449c0.449,0,0.967-0.131,1.29-0.256v3.416c-0.903,0.193-1.551,0.261-2.647,0.261
			c-4.126,0-4.774-2.324-4.774-5.808h-0.13c-2.836,4.324-5.74,6.774-12.128,6.774c-6.127,0-11.156-3.035-11.156-9.741
			c0-9.354,9.093-9.679,17.867-10.707c3.354-0.392,5.224-0.841,5.224-4.518c0-5.483-3.933-6.839-8.707-6.839
			c-5.035,0-8.774,2.321-8.905,7.742H320.473z M342.148,219.737h-0.126c-0.517,0.966-2.324,1.29-3.421,1.483
			c-6.904,1.222-15.48,1.159-15.48,7.678c0,4.063,3.608,6.576,7.417,6.576c6.194,0,11.678-3.934,11.61-10.452V219.737z"/>
		<path fill="#122147" d="M354.354,204.639h3.739v7.808h0.131c2.063-5.355,6.581-8.518,12.577-8.26v4.066
			c-7.354-0.389-12.384,5.028-12.384,11.934v17.742h-4.063V204.639z"/>
		<path fill="#122147" d="M373.518,204.639h4.325l10.968,28.386l10.258-28.386h4.063l-14.452,38.388
			c-2.324,5.609-3.677,7.224-8.774,7.224c-1.613-0.062-2.449-0.062-3.097-0.324v-3.415c0.971,0.192,1.875,0.318,2.778,0.318
			c3.609,0,4.45-2.126,5.803-5.224l1.421-3.807L373.518,204.639z"/>
	</g>
	<path fill="#122147" d="M192.834,199.113v-8.793h-33.448v32.399c-0.177-3.798-1.564-6.743-4.188-8.812
		c-1.812-1.437-4.539-2.576-8.177-3.433l-8.294-1.959c-3.202-0.747-5.296-1.396-6.278-1.953c-0.909-0.493-1.543-1.136-1.912-1.925
		l-0.005,0.003c-0.002-0.008-0.002-0.014-0.005-0.019c-0.248-0.541-0.389-1.173-0.389-1.849c0-1.447,0.496-2.68,1.528-3.648
		c0-0.003,0-0.003,0-0.003c0.023-0.021,0.044-0.042,0.068-0.06v-0.003c0-0.003,0-0.003,0.002,0c0.225-0.206,0.473-0.399,0.744-0.58
		c1.557-1.026,3.638-1.538,6.247-1.538c2.345,0,4.306,0.395,5.886,1.186c2.366,1.199,3.635,3.218,3.812,6.062h9.49
		c-0.172-5.021-2.04-8.855-5.599-11.498c-3.559-2.638-7.863-3.959-12.903-3.959c-6.038,0-10.616,1.399-13.734,4.201
		c-1.914,1.722-3.238,3.717-3.977,5.979h-0.005c-0.157,0.488-0.29,0.994-0.395,1.507c-1.157,5.452-4.667,9.153-10.537,9.153
		c-9.394,0-12.924-7.994-12.924-15.923c0-8.328,3.53-16.319,12.924-16.319c5.197,0,9.725,3.596,10.391,8.323h10.127
		c-1.264-10.989-10.06-17.119-20.519-17.119c-14.042,0-22.561,9.997-23.321,23.174v-22.041H76.982v29.578
		c0,7.064-2.4,10.326-9.861,10.326c-8.461,0-9.796-5.129-9.796-10.326v-29.578H46.869v29.578c0,12.923,7.461,19.123,20.252,19.123
		c12.729,0,20.323-6.263,20.323-19.123v-3.708c0.76,12.83,9.278,22.831,23.321,22.831c5.771,0,10.691-1.865,14.321-5.182
		c0.225,0.183,0.455,0.36,0.697,0.527c1.883,1.306,5.338,2.513,10.368,3.625l5.116,1.123c2.995,0.637,5.184,1.373,6.565,2.209
		c1.376,0.856,2.066,2.063,2.066,3.625c0,2.674-1.405,4.497-4.223,5.484c-1.483,0.512-3.416,0.768-5.798,0.768
		c-3.969,0-6.777-0.972-8.412-2.92c-0.896-1.065-1.499-2.679-1.802-4.836h-9.428c0,4.914,1.781,8.779,5.346,11.59
		c3.567,2.81,8.461,4.215,14.685,4.215c6.095,0,10.809-1.426,14.149-4.277c3.069-2.628,4.725-5.876,4.97-9.736v13.303h10.462
		v-19.653h19.92v-8.126h-19.92v-10.994H192.834z"/>
</g>
</svg>
