<?xml version="1.0" encoding="utf-8"?>
<!-- Generator: Adobe Illustrator 16.0.4, SVG Export Plug-In . SVG Version: 6.00 Build 0)  -->
<!DOCTYPE svg PUBLIC "-//W3C//DTD SVG 1.1//EN" "http://www.w3.org/Graphics/SVG/1.1/DTD/svg11.dtd">
<svg version="1.1" id="Layer_1" xmlns="http://www.w3.org/2000/svg" xmlns:xlink="http://www.w3.org/1999/xlink" x="0px" y="0px"
	 width="250px" height="65px" viewBox="100 192.5 250 65" enable-background="new 100 192.5 250 65" xml:space="preserve">
<g>
	<polygon fill="#FFFFFF" points="219.454,212.39 222.532,212.39 222.532,242.087 240.642,242.087 240.642,244.714 219.454,244.714 	
		"/>
	<path fill="#FFFFFF" d="M243.272,212.39h2.852v4.572h-2.852V212.39z M243.272,221.353h2.852v23.359h-2.852V221.353z"/>
	<g>
		<g>
			<g>
				<defs>
					<rect id="SVGID_1_" x="99.593" y="196.018" width="250" height="57.341"/>
				</defs>
				<clipPath id="SVGID_2_">
					<use xlink:href="#SVGID_1_"  overflow="visible"/>
				</clipPath>
				<path clip-path="url(#SVGID_2_)" fill="#FFFFFF" d="M251.604,212.39h2.852v13.4h0.092c1.222-3.35,4.618-5.114,8.104-5.114
					c7.106,0,10.502,5.748,10.502,12.357s-3.396,12.359-10.502,12.359c-3.758,0-7.018-1.949-8.33-5.117h-0.089v4.437h-2.627
					L251.604,212.39L251.604,212.39z M262.65,223.074c-6.066,0-8.195,5.115-8.195,9.959c0,4.844,2.129,9.959,8.195,9.959
					c5.432,0,7.651-5.115,7.651-9.959C270.302,228.188,268.082,223.074,262.65,223.074"/>
			</g>
		</g>
		<g>
			<g>
				<defs>
					<rect id="SVGID_3_" x="99.593" y="196.018" width="250" height="57.341"/>
				</defs>
				<clipPath id="SVGID_4_">
					<use xlink:href="#SVGID_3_"  overflow="visible"/>
				</clipPath>
				<path clip-path="url(#SVGID_4_)" fill="#FFFFFF" d="M277.597,221.353h2.627v5.477h0.09c1.448-3.755,4.618-5.977,8.828-5.794
					v2.854c-5.162-0.273-8.693,3.53-8.693,8.375v12.447h-2.852V221.353L277.597,221.353z"/>
			</g>
		</g>
		<g>
			<g>
				<defs>
					<rect id="SVGID_5_" x="99.593" y="196.018" width="250" height="57.341"/>
				</defs>
				<clipPath id="SVGID_6_">
					<use xlink:href="#SVGID_5_"  overflow="visible"/>
				</clipPath>
				<path clip-path="url(#SVGID_6_)" fill="#FFFFFF" d="M291.589,228.506c0.272-5.477,4.121-7.831,9.462-7.831
					c4.12,0,8.602,1.267,8.602,7.515v12.404c0,1.087,0.545,1.72,1.676,1.72c0.317,0,0.678-0.091,0.905-0.183v2.398
					c-0.632,0.137-1.087,0.183-1.857,0.183c-2.896,0-3.349-1.629-3.349-4.074h-0.09c-1.991,3.033-4.027,4.755-8.511,4.755
					c-4.301,0-7.831-2.129-7.831-6.838c0-6.563,6.385-6.789,12.539-7.513c2.355-0.272,3.667-0.589,3.667-3.171
					c0-3.846-2.763-4.796-6.113-4.796c-3.531,0-6.154,1.63-6.248,5.432L291.589,228.506L291.589,228.506z M306.801,231.947h-0.091
					c-0.362,0.678-1.631,0.904-2.397,1.041c-4.846,0.859-10.863,0.814-10.863,5.387c0,2.852,2.532,4.617,5.203,4.617
					c4.348,0,8.192-2.762,8.149-7.335L306.801,231.947L306.801,231.947z"/>
			</g>
		</g>
		<g>
			<g>
				<defs>
					<rect id="SVGID_7_" x="99.593" y="196.018" width="250" height="57.341"/>
				</defs>
				<clipPath id="SVGID_8_">
					<use xlink:href="#SVGID_7_"  overflow="visible"/>
				</clipPath>
				<path clip-path="url(#SVGID_8_)" fill="#FFFFFF" d="M315.363,221.353h2.626v5.477h0.09c1.448-3.755,4.617-5.977,8.827-5.794
					v2.854c-5.16-0.273-8.693,3.53-8.693,8.375v12.447h-2.853v-23.359H315.363z"/>
			</g>
		</g>
		<g>
			<g>
				<defs>
					<rect id="SVGID_9_" x="99.593" y="196.018" width="250" height="57.341"/>
				</defs>
				<clipPath id="SVGID_10_">
					<use xlink:href="#SVGID_9_"  overflow="visible"/>
				</clipPath>
				<path clip-path="url(#SVGID_10_)" fill="#FFFFFF" d="M328.812,221.353h3.036l7.693,19.92l7.199-19.92h2.853l-10.141,26.937
					c-1.632,3.938-2.581,5.067-6.157,5.067c-1.132-0.044-1.72-0.044-2.174-0.224v-2.398c0.68,0.136,1.314,0.226,1.949,0.226
					c2.536,0,3.123-1.494,4.076-3.669l0.993-2.669L328.812,221.353z"/>
			</g>
		</g>
		<g>
			<g>
				<defs>
					<rect id="SVGID_11_" x="99.593" y="196.018" width="250" height="57.341"/>
				</defs>
				<clipPath id="SVGID_12_">
					<use xlink:href="#SVGID_11_"  overflow="visible"/>
				</clipPath>
				<path clip-path="url(#SVGID_12_)" fill="#FFFFFF" d="M202.021,217.476v-6.171H178.55v22.734c-0.125-2.662-1.098-4.73-2.94-6.184
					c-1.271-1.005-3.185-1.807-5.738-2.408l-5.82-1.373c-2.247-0.525-3.716-0.98-4.405-1.372c-0.638-0.346-1.083-0.796-1.341-1.35
					l-0.004,0.002c-0.001-0.006-0.001-0.011-0.003-0.014c-0.174-0.379-0.273-0.823-0.273-1.297c0-1.015,0.348-1.881,1.072-2.561
					v-0.001c0.016-0.015,0.031-0.03,0.048-0.042v-0.002c0-0.001,0-0.001,0.001,0c0.158-0.145,0.332-0.281,0.522-0.407
					c1.093-0.721,2.553-1.079,4.383-1.079c1.646,0,3.022,0.277,4.131,0.832c1.66,0.841,2.55,2.256,2.675,4.253h6.66
					c-0.122-3.524-1.432-6.214-3.93-8.069c-2.498-1.851-5.518-2.778-9.054-2.778c-4.237,0-7.45,0.982-9.638,2.948
					c-1.343,1.208-2.271,2.608-2.791,4.195h-0.004c-0.11,0.343-0.204,0.698-0.276,1.058c-0.812,3.826-3.275,6.422-7.395,6.422
					c-6.592,0-9.069-5.609-9.069-11.173c0-5.844,2.478-11.452,9.069-11.452c3.647,0,6.824,2.524,7.292,5.84h7.106
					c-0.887-7.711-7.059-12.013-14.398-12.013c-9.854,0-15.832,7.015-16.364,16.263v-15.468h-7.342v20.756
					c0,4.957-1.684,7.246-6.92,7.246c-5.937,0-6.874-3.6-6.874-7.246v-20.756h-7.337v20.756c0,9.069,5.236,13.418,14.211,13.418
					c8.933,0,14.262-4.395,14.262-13.418v-2.602c0.533,9.002,6.511,16.02,16.364,16.02c4.05,0,7.502-1.307,10.05-3.635
					c0.157,0.129,0.319,0.254,0.489,0.368c1.322,0.915,3.746,1.763,7.275,2.544l3.59,0.788c2.102,0.449,3.638,0.966,4.607,1.552
					c0.966,0.6,1.449,1.447,1.449,2.542c0,1.876-0.986,3.157-2.963,3.848c-1.041,0.36-2.397,0.54-4.068,0.54
					c-2.786,0-4.756-0.683-5.903-2.049c-0.629-0.75-1.052-1.881-1.265-3.396h-6.615c0,3.451,1.25,6.161,3.751,8.135
					c2.503,1.973,5.938,2.958,10.305,2.958c4.276,0,7.584-0.999,9.929-3.002c2.153-1.845,3.314-4.122,3.487-6.832v9.337h7.341
					v-13.793h13.979v-5.703h-13.979v-7.714h16.13V217.476z"/>
			</g>
		</g>
	</g>
</g>
</svg>
