<?xml version="1.0" encoding="utf-8"?>
<!-- Generator: Adobe Illustrator 15.0.2, SVG Export Plug-In . SVG Version: 6.00 Build 0)  -->
<!DOCTYPE svg PUBLIC "-//W3C//DTD SVG 1.1//EN" "http://www.w3.org/Graphics/SVG/1.1/DTD/svg11.dtd">
<svg version="1.1" id="Layer_1" xmlns="http://www.w3.org/2000/svg" xmlns:xlink="http://www.w3.org/1999/xlink" x="0px" y="0px"
	 width="250.507px" height="59.293px" viewBox="0 0 250.507 59.293" enable-background="new 0 0 250.507 59.293"
	 xml:space="preserve">
<g>
	<path fill="#FFFFFF" d="M70.437,32.738c0,1.632,0.663,2.107,2.567,2.107h3.06c1.819,0,2.482-0.492,2.482-2.125v-7.31h2.839v7.599
		c0,3.111-1.173,4.199-4.811,4.199h-4.182c-3.468,0-4.777-1.189-4.777-4.199v-7.599h2.822V32.738z"/>
	<path fill="#FFFFFF" d="M83.646,32.279v-1.496c0-4.607,1.224-5.373,5.61-5.373h2.516c4.624,0,5.78,0.697,5.78,4.012h-2.924
		c-0.017-0.918-0.306-1.394-2.992-1.394h-2.176c-2.55,0-2.958,0.221-2.958,2.72v1.292c0,2.295,0.408,2.618,2.856,2.618h2.312
		c2.499,0,2.992-0.222,2.975-1.548h2.924c0.017,3.146-0.782,4.115-5.831,4.115h-2.584C84.818,37.227,83.646,36.189,83.646,32.279z"
		/>
	<path fill="#FFFFFF" d="M109.099,25.411c2.958,0,4.369,1.071,4.369,3.332h-3.043c-0.017-0.714-0.255-0.986-1.445-0.986h-4.743
		c-0.799,0-1.377,0.204-1.377,1.105c0,0.935,0.561,0.969,1.377,1.003l5.219,0.204c2.669,0.102,4.029,0.442,4.029,3.553
		c0,2.517-1.02,3.587-3.978,3.587h-5.848c-3.009,0-3.978-1.07-3.978-3.35h2.89c0,0.578,0.578,0.986,1.377,0.986h4.726
		c1.241,0,1.853-0.238,1.853-1.189c0-0.85-0.357-1.241-1.972-1.31l-4.522-0.187c-3.196-0.137-4.369-0.408-4.369-3.332
		c0-2.516,1.224-3.417,4.25-3.417H109.099z"/>
	<path fill="#FFFFFF" d="M128.156,25.411v2.346h-9.231v2.176h8.942v2.363h-8.942v4.913h-2.839V25.411H128.156z"/>
	<path fill="#FFFFFF" d="M141.722,25.411v9.418h7.259v2.38h-10.098V25.411H141.722z"/>
	<path fill="#FFFFFF" d="M151.493,25.411h2.822v11.798h-2.822V25.411z"/>
	<path fill="#FFFFFF" d="M169.762,28.352c0,2.023-0.272,2.261-0.952,2.583c0.918,0.188,1.563,0.731,1.563,2.805
		c0,2.517-0.815,3.469-3.264,3.469h-9.962V25.411h9.01C168.945,25.411,169.762,26.278,169.762,28.352z M165.732,29.848
		c0.748,0,1.207-0.238,1.207-1.037c0-0.765-0.442-1.054-1.224-1.054h-5.729v2.091H165.732z M166.157,34.846
		c0.884,0,1.377-0.357,1.377-1.394c0-0.97-0.526-1.241-1.479-1.241h-6.069v2.635H166.157z"/>
	<path fill="#FFFFFF" d="M185.775,37.209h-2.839v-1.836c0-1.156-0.612-1.684-1.921-1.684h-5.576v3.52h-2.839V25.411h8.755
		c3.06,0,4.301,1.037,4.301,3.774v0.816c0,1.343-0.187,2.04-0.935,2.517c0.646,0.237,1.054,0.85,1.054,2.243V37.209z
		 M182.834,29.457c0-0.918-0.356-1.224-1.411-1.224h-6.034v2.652h6.103c0.986,0,1.343-0.306,1.343-1.19V29.457z"/>
	<path fill="#FFFFFF" d="M197.828,25.411l6.086,11.798H200.6l-1.429-2.839h-7.157l-1.444,2.839h-3.298l6.086-11.798H197.828z
		 M195.567,27.621l-2.329,4.386h4.709l-2.244-4.386H195.567z"/>
	<path fill="#FFFFFF" d="M218.449,37.209h-2.839v-1.836c0-1.156-0.612-1.684-1.922-1.684h-5.575v3.52h-2.84V25.411h8.756
		c3.06,0,4.301,1.037,4.301,3.774v0.816c0,1.343-0.188,2.04-0.936,2.517c0.646,0.237,1.055,0.85,1.055,2.243V37.209z
		 M215.508,29.457c0-0.918-0.356-1.224-1.411-1.224h-6.035v2.652h6.104c0.986,0,1.343-0.306,1.343-1.19V29.457z"/>
	<path fill="#FFFFFF" d="M226.299,30.732l3.842-5.322h3.23l-5.661,7.82v3.979h-2.839V33.23l-5.797-7.82h3.383L226.299,30.732z"/>
</g>
<g>
	<path fill="#FFFFFF" d="M83.312,49.998c-0.389,0.422-0.777,0.547-1.565,0.547c-1.366,0-1.669-0.65-1.669-1.681
		c0-1.051,0.241-1.68,1.669-1.68c1.019,0,1.239,0.116,1.481,0.482h0.021v-0.976c0-0.789-0.073-1.061-1.187-1.061
		c-1.103,0-1.124,0.271-1.124,0.955h-0.672v-0.284c0-0.651,0.158-1.28,1.828-1.28c1.491,0,1.828,0.482,1.828,1.521v3.918h-0.609
		V49.998z M82.03,49.873c0.893,0,1.281-0.221,1.281-1.041c0-0.818-0.389-1.039-1.281-1.039s-1.281,0.221-1.281,1.039
		C80.749,49.652,81.138,49.873,82.03,49.873z"/>
	<path fill="#FFFFFF" d="M85.244,45.105h0.672v0.692h0.021c0.336-0.577,0.703-0.776,1.48-0.776c1.239,0,1.575,0.619,1.575,1.658
		v3.781h-0.672v-3.623c0-0.619-0.137-1.207-1.019-1.207c-0.819,0-1.386,0.314-1.386,1.448v3.382h-0.672V45.105z"/>
	<path fill="#FFFFFF" d="M93.519,49.788h-0.021c-0.252,0.536-0.62,0.757-1.376,0.757c-1.491,0-1.901-0.662-1.901-2.763
		s0.41-2.761,1.796-2.761c0.609,0,1.113,0.125,1.481,0.755h0.021v-2.918h0.672v7.603h-0.672V49.788z M92.238,49.873
		c1.123,0,1.281-0.399,1.281-2.404c0-1.314-0.315-1.775-1.281-1.775c-1.05,0-1.282,0.241-1.282,2.089
		C90.957,49.631,91.188,49.873,92.238,49.873z"/>
	<path fill="#FFFFFF" d="M103.727,48.508c0,1.648-0.515,2.037-2.353,2.037c-2.006,0-2.689-0.379-2.689-2.604v-2.562
		c0-2.229,0.683-2.605,2.689-2.605c1.68,0,2.353,0.221,2.353,1.984v0.547h-0.672v-0.494c0-1.187-0.389-1.302-1.68-1.302
		c-1.732,0-1.953,0.229-1.953,1.911v2.479c0,1.681,0.221,1.911,1.953,1.911c1.533,0,1.68-0.336,1.68-1.376V47.93h0.672V48.508z"/>
	<path fill="#FFFFFF" d="M105.585,47.94v0.493c0,1.166,0.2,1.502,1.124,1.502c1.082,0,1.313-0.021,1.313-1.071h0.672v0.2
		c0,1.071-0.263,1.48-1.869,1.48c-1.765,0-1.975-0.587-1.975-2.763c0-2.216,0.357-2.761,1.975-2.761c1.606,0,1.869,0.65,1.869,2.11
		v0.809H105.585z M108.022,47.268c0-1.133-0.021-1.637-1.218-1.637c-1.197,0-1.219,0.504-1.219,1.637H108.022z"/>
	<path fill="#FFFFFF" d="M110.017,45.105h0.672v0.692h0.021c0.336-0.577,0.704-0.776,1.481-0.776c1.239,0,1.575,0.619,1.575,1.658
		v3.781h-0.672v-3.623c0-0.619-0.136-1.207-1.019-1.207c-0.819,0-1.386,0.314-1.386,1.448v3.382h-0.672V45.105z"/>
	<path fill="#FFFFFF" d="M115.268,45.714h-0.556v-0.608h0.556v-1.239h0.672v1.239h1.733v0.608h-1.733v3.581
		c0,0.441,0.137,0.641,0.579,0.641c0.503,0,0.724-0.094,0.724-1.281h0.61c0,1.713-0.546,1.891-1.324,1.891
		c-0.987,0-1.26-0.305-1.26-1.104V45.714z"/>
	<path fill="#FFFFFF" d="M119.436,47.94v0.493c0,1.166,0.2,1.502,1.125,1.502c1.082,0,1.313-0.021,1.313-1.071h0.673v0.2
		c0,1.071-0.263,1.48-1.87,1.48c-1.765,0-1.974-0.587-1.974-2.763c0-2.216,0.357-2.761,1.974-2.761c1.607,0,1.87,0.65,1.87,2.11
		v0.809H119.436z M121.873,47.268c0-1.133-0.021-1.637-1.219-1.637c-1.196,0-1.218,0.504-1.218,1.637H121.873z"/>
	<path fill="#FFFFFF" d="M123.868,45.105h0.672v0.651h0.021c0.252-0.516,0.567-0.735,1.239-0.735c0.852,0,1.239,0.367,1.239,1.438
		v0.43h-0.609c0.011-0.987-0.104-1.259-0.871-1.259c-0.672-0.012-1.019,0.367-1.019,1.102v3.729h-0.672V45.105z"/>
	<path fill="#FFFFFF" d="M131.461,45.714h-0.662v-0.608h0.662v-0.967c0-0.988,0.462-1.365,1.398-1.365
		c0.156,0,0.314,0.011,0.471,0.021v0.598c-0.146-0.01-0.294-0.01-0.439-0.01c-0.442,0-0.757,0.146-0.757,0.756v0.967h1.176v0.608
		h-1.176v4.747h-0.673V45.714z"/>
	<path fill="#FFFFFF" d="M135.904,45.021c1.764,0,1.975,0.629,1.975,2.761c0,2.216-0.231,2.763-1.975,2.763
		c-1.744,0-1.976-0.547-1.976-2.763C133.929,45.65,134.139,45.021,135.904,45.021z M135.904,49.936c1.07,0,1.238-0.157,1.238-2.153
		c0-1.994-0.168-2.151-1.238-2.151c-1.073,0-1.24,0.157-1.24,2.151C134.664,49.778,134.831,49.936,135.904,49.936z"/>
	<path fill="#FFFFFF" d="M139.106,45.105h0.672v0.651h0.021c0.253-0.516,0.568-0.735,1.239-0.735c0.852,0,1.239,0.367,1.239,1.438
		v0.43h-0.608c0.011-0.987-0.105-1.259-0.873-1.259c-0.671-0.012-1.018,0.367-1.018,1.102v3.729h-0.672V45.105z"/>
	<path fill="#FFFFFF" d="M146.415,42.858h0.736v3.296h0.683l2.572-3.296h0.913l-2.867,3.675l3.183,3.928h-0.945l-2.899-3.571h-0.639
		v3.571h-0.736V42.858z"/>
	<path fill="#FFFFFF" d="M152.181,45.105h0.673v0.692h0.021c0.336-0.577,0.703-0.776,1.48-0.776c1.24,0,1.575,0.619,1.575,1.658
		v3.781h-0.672v-3.623c0-0.619-0.137-1.207-1.02-1.207c-0.818,0-1.385,0.314-1.385,1.448v3.382h-0.673V45.105z"/>
	<path fill="#FFFFFF" d="M159.134,45.021c1.763,0,1.974,0.629,1.974,2.761c0,2.216-0.23,2.763-1.974,2.763
		c-1.744,0-1.975-0.547-1.975-2.763C157.159,45.65,157.369,45.021,159.134,45.021z M159.134,49.936c1.07,0,1.239-0.157,1.239-2.153
		c0-1.994-0.169-2.151-1.239-2.151c-1.072,0-1.241,0.157-1.241,2.151C157.893,49.778,158.062,49.936,159.134,49.936z"/>
	<path fill="#FFFFFF" d="M161.854,45.105h0.661l1.061,4.673h0.021l1.008-4.673h0.966l1.009,4.683h0.021l1.061-4.683h0.662
		l-1.271,5.355h-0.977l-0.977-4.685h-0.021l-0.978,4.685h-0.977L161.854,45.105z"/>
	<path fill="#FFFFFF" d="M169.341,42.858h0.672v7.603h-0.672V42.858z"/>
	<path fill="#FFFFFF" d="M172.155,47.94v0.493c0,1.166,0.2,1.502,1.123,1.502c1.082,0,1.313-0.021,1.313-1.071h0.671v0.2
		c0,1.071-0.262,1.48-1.869,1.48c-1.764,0-1.975-0.587-1.975-2.763c0-2.216,0.357-2.761,1.975-2.761c1.607,0,1.869,0.65,1.869,2.11
		v0.809H172.155z M174.592,47.268c0-1.133-0.021-1.637-1.219-1.637s-1.218,0.504-1.218,1.637H174.592z"/>
	<path fill="#FFFFFF" d="M179.79,49.788h-0.021c-0.252,0.536-0.619,0.757-1.376,0.757c-1.491,0-1.9-0.662-1.9-2.763
		s0.409-2.761,1.796-2.761c0.608,0,1.112,0.125,1.48,0.755h0.021v-2.918h0.672v7.603h-0.672V49.788z M178.508,49.873
		c1.124,0,1.282-0.399,1.282-2.404c0-1.314-0.315-1.775-1.282-1.775c-1.05,0-1.281,0.241-1.281,2.089
		C177.227,49.631,177.458,49.873,178.508,49.873z"/>
	<path fill="#FFFFFF" d="M185.114,49.495h-0.022c-0.271,0.599-0.745,0.776-1.396,0.776c-1.732,0-1.848-1.145-1.848-2.625
		s0.115-2.625,1.848-2.625c0.683,0,1.104,0.167,1.396,0.808h0.022v-0.724h0.672v5.303c0,1.586-0.494,2.027-2.133,2.027
		c-1.039,0-1.681-0.368-1.658-1.491h0.672c0,0.63,0.272,0.818,1.135,0.818c1.092,0,1.313-0.229,1.313-1.481V49.495z M183.759,49.6
		c1.092,0,1.355-0.432,1.355-1.953c0-1.523-0.264-1.953-1.355-1.953c-1.081,0-1.176,0.535-1.176,1.953S182.678,49.6,183.759,49.6z"
		/>
	<path fill="#FFFFFF" d="M187.749,47.94v0.493c0,1.166,0.199,1.502,1.124,1.502c1.081,0,1.312-0.021,1.312-1.071h0.673v0.2
		c0,1.071-0.262,1.48-1.868,1.48c-1.766,0-1.975-0.587-1.975-2.763c0-2.216,0.356-2.761,1.975-2.761c1.606,0,1.868,0.65,1.868,2.11
		v0.809H187.749z M190.185,47.268c0-1.133-0.02-1.637-1.218-1.637c-1.195,0-1.218,0.504-1.218,1.637H190.185z"/>
	<path fill="#FFFFFF" d="M195.394,42.858h1.229l2.3,6.709h0.021l2.301-6.709h1.229v7.603h-0.736v-6.806h-0.021l-2.383,6.806h-0.798
		l-2.385-6.806h-0.021v6.806h-0.736V42.858z"/>
	<path fill="#FFFFFF" d="M207.02,49.998c-0.388,0.422-0.776,0.547-1.564,0.547c-1.365,0-1.669-0.65-1.669-1.681
		c0-1.051,0.24-1.68,1.669-1.68c1.02,0,1.238,0.116,1.48,0.482h0.021v-0.976c0-0.789-0.073-1.061-1.186-1.061
		c-1.104,0-1.124,0.271-1.124,0.955h-0.671v-0.284c0-0.651,0.156-1.28,1.826-1.28c1.492,0,1.828,0.482,1.828,1.521v3.918h-0.61
		V49.998z M205.739,49.873c0.893,0,1.28-0.221,1.28-1.041c0-0.818-0.388-1.039-1.28-1.039c-0.895,0-1.282,0.221-1.282,1.039
		C204.457,49.652,204.845,49.873,205.739,49.873z"/>
	<path fill="#FFFFFF" d="M208.951,45.105h0.674v0.692h0.02c0.337-0.577,0.704-0.776,1.481-0.776c1.238,0,1.574,0.619,1.574,1.658
		v3.781h-0.671v-3.623c0-0.619-0.137-1.207-1.019-1.207c-0.819,0-1.386,0.314-1.386,1.448v3.382h-0.674V45.105z"/>
	<path fill="#FFFFFF" d="M217.164,49.998c-0.388,0.422-0.777,0.547-1.564,0.547c-1.365,0-1.67-0.65-1.67-1.681
		c0-1.051,0.241-1.68,1.67-1.68c1.02,0,1.239,0.116,1.481,0.482h0.021v-0.976c0-0.789-0.074-1.061-1.188-1.061
		c-1.103,0-1.123,0.271-1.123,0.955h-0.672v-0.284c0-0.651,0.157-1.28,1.827-1.28c1.491,0,1.828,0.482,1.828,1.521v3.918h-0.61
		V49.998z M215.883,49.873c0.894,0,1.281-0.221,1.281-1.041c0-0.818-0.388-1.039-1.281-1.039c-0.893,0-1.281,0.221-1.281,1.039
		C214.602,49.652,214.99,49.873,215.883,49.873z"/>
	<path fill="#FFFFFF" d="M222.362,49.495h-0.021c-0.271,0.599-0.745,0.776-1.395,0.776c-1.733,0-1.85-1.145-1.85-2.625
		s0.116-2.625,1.85-2.625c0.681,0,1.102,0.167,1.395,0.808h0.021v-0.724h0.672v5.303c0,1.586-0.493,2.027-2.132,2.027
		c-1.039,0-1.68-0.368-1.658-1.491h0.671c0,0.63,0.273,0.818,1.136,0.818c1.09,0,1.312-0.229,1.312-1.481V49.495z M221.008,49.6
		c1.093,0,1.354-0.432,1.354-1.953c0-1.523-0.262-1.953-1.354-1.953c-1.082,0-1.176,0.535-1.176,1.953S219.926,49.6,221.008,49.6z"
		/>
	<path fill="#FFFFFF" d="M224.998,47.94v0.493c0,1.166,0.2,1.502,1.123,1.502c1.083,0,1.314-0.021,1.314-1.071h0.672v0.2
		c0,1.071-0.263,1.48-1.869,1.48c-1.766,0-1.975-0.587-1.975-2.763c0-2.216,0.357-2.761,1.975-2.761c1.606,0,1.869,0.65,1.869,2.11
		v0.809H224.998z M227.436,47.268c0-1.133-0.021-1.637-1.219-1.637s-1.219,0.504-1.219,1.637H227.436z"/>
	<path fill="#FFFFFF" d="M229.431,45.105h0.672v0.797h0.02c0.337-0.576,0.662-0.881,1.419-0.881c0.714,0,1.26,0.156,1.533,0.871
		c0.41-0.651,0.852-0.871,1.606-0.871c1.082,0,1.597,0.525,1.597,1.585v3.854h-0.672v-3.465c0-1.072-0.44-1.303-1.124-1.303
		c-0.861,0-1.291,0.347-1.291,1.396v3.371h-0.673v-3.707c0-0.799-0.325-1.061-1.061-1.061c-0.977,0-1.354,0.588-1.354,1.701v3.066
		h-0.672V45.105z"/>
	<path fill="#FFFFFF" d="M238.241,47.94v0.493c0,1.166,0.2,1.502,1.124,1.502c1.081,0,1.313-0.021,1.313-1.071h0.671v0.2
		c0,1.071-0.262,1.48-1.868,1.48c-1.764,0-1.975-0.587-1.975-2.763c0-2.216,0.356-2.761,1.975-2.761c1.606,0,1.868,0.65,1.868,2.11
		v0.809H238.241z M240.678,47.268c0-1.133-0.021-1.637-1.219-1.637c-1.196,0-1.218,0.504-1.218,1.637H240.678z"/>
	<path fill="#FFFFFF" d="M242.673,45.105h0.671v0.692h0.022c0.336-0.577,0.703-0.776,1.48-0.776c1.239,0,1.576,0.619,1.576,1.658
		v3.781h-0.673v-3.623c0-0.619-0.138-1.207-1.019-1.207c-0.818,0-1.388,0.314-1.388,1.448v3.382h-0.671V45.105z"/>
	<path fill="#FFFFFF" d="M247.924,45.714h-0.557v-0.608h0.557v-1.239h0.671v1.239h1.733v0.608h-1.733v3.581
		c0,0.441,0.138,0.641,0.579,0.641c0.504,0,0.725-0.094,0.725-1.281h0.608c0,1.713-0.546,1.891-1.323,1.891
		c-0.986,0-1.26-0.305-1.26-1.104V45.714z"/>
</g>
<g>
	<path fill="#FFFFFF" d="M30.106,39.75V7.916c1.5-2.813,2.83-3.563,4.313-4.553c0,3.713,0,30.307,0,31.365
		C32.274,36.24,30.429,38.604,30.106,39.75z M32.685,41.479c-0.312-0.268-0.775-0.455-1.135-0.66
		c0.515-1.014,1.813-3.209,3.962-4.523l0.558-0.332V8.51c1.1-1.594,3.501-2.211,4.717-2.303c0,2.49,0,29.256,0,31.004
		C36.782,37.832,33.869,40.256,32.685,41.479z M35.484,46.439c-0.087-2.16-1.052-3.195-1.181-3.428
		c0.89-0.996,3.067-3.039,7.234-3.365l1.033-0.08v-28.42c0.94-0.195,1.97-0.453,4.119,0.73c0,1.703,0,13.012,0,15.281h2.217V10.574
		c0,0-3.467-2.639-6.336-1.672V3.873l-1.235,0.133c-0.153,0.016-2.968,0.344-5.283,2.156V0.221l-1.638,0.875
		c-0.18,0.096-3.714,2.033-5.842,5.975c-0.008-0.014-0.017-0.027-0.025-0.045v35.246c2.197,0.072,4.729,1.91,4.919,4.168H35.484z"/>
</g>
<g>
	<rect y="43.697" fill="#FFFFFF" width="2.811" height="2.807"/>
	<rect x="26.392" y="50.021" fill="#FFFFFF" width="2.81" height="2.805"/>
	<rect x="6.619" y="50.021" fill="#FFFFFF" width="2.812" height="2.805"/>
	<rect y="50.021" fill="#FFFFFF" width="2.811" height="2.805"/>
	<rect x="19.777" y="50.021" fill="#FFFFFF" width="2.809" height="2.805"/>
	<rect x="13.16" y="50.021" fill="#FFFFFF" width="2.81" height="2.805"/>
	<rect x="46.402" y="50.021" fill="#FFFFFF" width="2.811" height="2.805"/>
	<rect x="33.163" y="50.021" fill="#FFFFFF" width="2.811" height="2.805"/>
	<rect x="39.782" y="50.021" fill="#FFFFFF" width="2.812" height="2.805"/>
	<rect x="39.782" y="43.768" fill="#FFFFFF" width="2.812" height="2.809"/>
	<rect y="37.254" fill="#FFFFFF" width="2.811" height="2.811"/>
	<rect x="52.869" y="43.697" fill="#FFFFFF" width="2.812" height="2.807"/>
	<rect x="52.869" y="50.021" fill="#FFFFFF" width="2.812" height="2.805"/>
	<rect x="26.392" y="56.486" fill="#FFFFFF" width="2.81" height="2.807"/>
	<rect x="6.619" y="56.486" fill="#FFFFFF" width="2.812" height="2.807"/>
	<rect y="56.486" fill="#FFFFFF" width="2.811" height="2.807"/>
	<rect x="19.777" y="56.486" fill="#FFFFFF" width="2.809" height="2.807"/>
	<rect x="13.16" y="56.486" fill="#FFFFFF" width="2.81" height="2.807"/>
	<rect x="46.402" y="56.486" fill="#FFFFFF" width="2.811" height="2.807"/>
	<rect x="33.163" y="56.486" fill="#FFFFFF" width="2.811" height="2.807"/>
	<rect x="39.782" y="56.486" fill="#FFFFFF" width="2.812" height="2.807"/>
	<rect x="52.869" y="30.813" fill="#FFFFFF" width="2.812" height="2.811"/>
	<rect x="52.869" y="37.254" fill="#FFFFFF" width="2.812" height="2.811"/>
	<rect x="52.869" y="24.063" fill="#FFFFFF" width="2.812" height="2.811"/>
	<rect x="46.307" y="30.813" fill="#FFFFFF" width="2.812" height="2.811"/>
	<rect x="46.331" y="43.729" fill="#FFFFFF" width="2.811" height="2.809"/>
	<rect x="46.361" y="37.326" fill="#FFFFFF" width="2.811" height="2.811"/>
</g>
<path fill="#FFFFFF" d="M21.143,46.203c-3.078,0-12.599,0-14.534,0v-35.34c2.544-1.297,4.289-0.982,5.155-0.637v30.973l1.224,0.09
	c4.597,0.334,7.484,2.572,8.704,3.752C21.479,45.371,21.295,45.844,21.143,46.203z M23.439,43.186
	c-1.477-1.377-5.022-3.961-9.563-4.619c0-1.941,0-31.619,0-34.383c3.043,0.441,5.478,3.428,5.478,3.428v29.51l0.766,0.428
	c2.435,1.398,3.946,3.686,4.605,4.863C24.268,42.631,23.838,42.891,23.439,43.186z M26.821,41.188
	c-0.571-1.154-3.301-4.061-5.841-5.736c0-1.174,0-31.334,0-35.451c1.643,1.26,5.018,5.482,5.841,8.414V41.188z"/>
</svg>
